<?xml version="1.0" encoding="utf-8"?>
<!-- Generator: Adobe Illustrator 22.1.0, SVG Export Plug-In . SVG Version: 6.00 Build 0)  -->
<svg version="1.1" id="Layer_1" xmlns="http://www.w3.org/2000/svg" xmlns:xlink="http://www.w3.org/1999/xlink" x="0px" y="0px"
	 viewBox="0 0 600 600" style="enable-background:new 0 0 600 600;" xml:space="preserve">
<g>
	<path d="M333.1,573c2.6,3.5,6.6,6,10.9,6.8c3.7-14.5,13.2-26.8,21.4-39.3c21-31.8,35.3-67.4,48.6-103.1
		c25.6-68.7,48.2-143.1,31.3-214.4c-5.4-23-14.9-44.9-27.5-64.9c-6.5-10.3-13.9-20.2-23-28.4c-10.1-9.1-22.1-15.8-33.9-22.5
		c-49.3-27.7-98.6-55.5-148-83.2l0.4,2.2c-3.3,21.4-16,40.2-30.9,55.8c-14.9,15.7-32.2,28.9-47.3,44.3C82.2,180,58,259,64.4,334.3
		c2.6,30.6,10.2,61.3,26.8,87.2c30.6,47.7,86.2,71.8,137.4,96.2C265.6,535.3,297.6,552.3,333.1,573z"/>
</g>
</svg>
