<?xml version="1.0" encoding="utf-8"?>
<!-- Generator: Adobe Illustrator 22.1.0, SVG Export Plug-In . SVG Version: 6.00 Build 0)  -->
<svg version="1.1" id="Layer_1" xmlns="http://www.w3.org/2000/svg" xmlns:xlink="http://www.w3.org/1999/xlink" x="0px" y="0px"
	 viewBox="0 0 639 559" style="enable-background:new 0 0 639 559;" xml:space="preserve">
<style type="text/css">
	.st0{fill:#F0F0F0;}
	.st1{fill:#231F20;}
	.st2{font-family:'ArialMT';}
	.st3{font-size:55px;}
	.st4{opacity:0.7;enable-background:new    ;}
	.st5{fill:none;stroke:#A8A8A8;stroke-width:2;stroke-linejoin:round;stroke-miterlimit:1;}
	.st6{fill:none;}
	.st7{fill:none;stroke:#231F20;stroke-width:2;stroke-linecap:round;stroke-miterlimit:10;}
	.st8{fill:#FFFFFF;}
</style>
<circle class="st0" cx="238.3" cy="280.9" r="229.5"/>
<g>
	<text transform="matrix(1 0 0 1 477.8273 294.0897)" class="st1 st2 st3">x1</text>
</g>
<g>
	<text transform="matrix(1 0 0 1 530.3273 294.0897)" class="st1 st2 st3">=0.4</text>
</g>
<g>
	<text transform="matrix(1 0 0 1 460.1012 193.1999)" class="st1 st2 st3">x2</text>
</g>
<g>
	<text transform="matrix(1 0 0 1 521.077 193.3999)" class="st1 st2 st3">=0.5</text>
</g>
<g>
	<text transform="matrix(1 0 0 1 411.4763 99.5342)" class="st1 st2 st3">x3</text>
</g>
<g>
	<text transform="matrix(1 0 0 1 472.9763 99.5342)" class="st1 st2 st3">=0.8</text>
</g>
<polygon class="st4" points="238.3,134.8 246.6,135 254.7,135.7 262.8,136.8 270.9,138.4 278.8,140.5 286.6,143 294.3,145.9 
	301.8,149.2 298.3,156.5 294.7,163.9 291.2,171.2 287.7,178.5 284.1,185.8 280.7,193.1 277.1,200.5 273.6,207.7 270,215.1 
	266.5,222.4 263,229.7 259.5,237.1 256,244.3 252.4,251.7 248.9,259 245.4,266.3 241.9,273.6 238.3,280.9 238.3,272.8 238.3,264.7 
	238.3,256.6 238.3,248.5 238.3,240.3 238.3,232.2 238.3,224.1 238.3,216 238.3,207.8 238.3,199.7 238.3,191.6 238.3,183.5 
	238.3,175.3 238.3,167.2 238.3,159.1 238.3,151 238.3,142.9 "/>
<polygon class="st4" points="314.5,122.7 321.5,126.3 328.4,130.2 335,134.4 341.5,138.9 347.8,143.7 353.8,148.7 359.7,154.1 
	365.2,159.6 370.5,165.4 375.6,171.5 369.3,176.5 363.1,181.4 356.9,186.4 350.6,191.4 344.4,196.4 338.1,201.3 331.9,206.3 
	325.7,211.3 319.4,216.3 313.2,221.2 307,226.2 300.7,231.2 294.5,236.2 288.3,241.1 282,246.1 275.8,251.1 269.6,256 263.3,261 
	257,266 250.8,271 244.6,275.9 238.3,280.9 241.8,273.8 245.2,266.5 248.7,259.3 252.2,252.2 255.6,245 259.1,237.8 262.6,230.6 
	266,223.4 269.5,216.2 273,209 276.4,201.9 279.9,194.6 283.4,187.5 286.8,180.3 290.3,173.1 293.8,165.9 297.2,158.7 300.7,151.5 
	304.1,144.3 307.6,137.2 311,130 "/>
<polygon class="st4" points="348.4,193.2 353.1,199.5 357.5,206.1 361.5,212.9 365.1,219.9 368.4,227.1 371.1,234.4 373.5,242 
	375.5,249.6 367.4,251.5 359.4,253.3 351.3,255.2 343.2,257 335.2,258.8 327.1,260.7 319,262.5 311,264.3 302.9,266.2 294.8,268 
	286.7,269.9 278.7,271.7 270.6,273.5 262.5,275.4 254.5,277.2 246.4,279.1 238.3,280.9 244.8,275.8 251.3,270.6 257.8,265.4 
	264.2,260.3 270.7,255.1 277.2,249.9 283.6,244.8 290.1,239.7 296.6,234.5 303.1,229.3 309.5,224.2 316,219 322.5,213.8 
	328.9,208.7 335.4,203.5 341.9,198.3 "/>
<polygon class="st4" points="359.9,253.2 361.4,261 362.4,269 362.9,276.9 362.9,284.9 362.4,292.9 361.4,300.8 359.9,308.7 
	351.8,306.8 343.7,305 335.6,303.1 327.5,301.3 319.4,299.4 311.3,297.6 303.2,295.7 295.1,293.9 287,292 278.9,290.2 270.8,288.3 
	262.7,286.5 254.5,284.6 246.4,282.8 238.3,280.9 246.4,279.1 254.5,277.2 262.7,275.4 270.8,273.5 278.9,271.7 287,269.8 
	295.1,268 303.2,266.1 311.3,264.3 319.4,262.4 327.5,260.6 335.6,258.7 343.7,256.9 351.8,255.1 "/>
<polygon class="st4" points="371.6,311.3 369.4,319.8 366.7,328.1 363.4,336.3 359.6,344.2 355.3,351.8 350.5,359.1 345.3,366.1 
	338.9,361.1 332.6,356.1 326.4,351.1 320.1,346.1 313.8,341.1 307.5,336.1 301.2,331.1 295,326.1 288.6,321.1 282.3,316 276.1,311 
	269.8,306 263.5,301 257.2,296 250.9,290.9 244.7,285.9 238.3,280.9 246.2,282.7 254,284.5 261.9,286.3 269.7,288.1 277.6,289.9 
	285.4,291.6 293.2,293.4 301,295.2 308.9,297 316.8,298.8 324.6,300.6 332.4,302.4 340.3,304.2 348.1,306 356,307.8 363.8,309.5 "/>
<polygon class="st4" points="383.1,396.4 377.8,402.7 372.2,408.9 366.3,414.8 360.2,420.4 353.8,425.7 347.2,430.8 340.4,435.5 
	333.3,439.9 326.1,444 318.7,447.8 315.2,440.5 311.7,433.3 308.2,426 304.7,418.7 301.2,411.5 297.7,404.3 294.2,397 290.8,389.7 
	287.2,382.5 283.8,375.2 280.3,368 276.8,360.7 273.3,353.5 269.8,346.2 266.3,339 262.8,331.7 259.3,324.4 255.8,317.2 
	252.3,309.9 248.8,302.7 245.3,295.5 241.8,288.2 238.3,280.9 244.7,285.9 251,291 257.2,296 263.5,301 269.8,306 276.1,311.1 
	282.4,316.1 288.7,321.1 295,326.1 301.3,331.1 307.6,336.1 313.9,341.2 320.2,346.2 326.5,351.2 332.7,356.3 339.1,361.3 
	345.4,366.3 351.7,371.3 357.9,376.3 364.2,381.3 370.5,386.3 376.8,391.4 "/>
<polygon class="st4" points="285.1,378 277.7,381.2 270.1,383.9 262.3,385.9 254.4,387.5 246.4,388.4 238.3,388.7 238.3,380.4 
	238.3,372.1 238.3,363.8 238.3,355.5 238.3,347.2 238.3,339 238.3,330.6 238.3,322.4 238.3,314.1 238.3,305.8 238.3,297.5 
	238.3,289.2 238.3,280.9 241.9,288.4 245.5,295.9 249.1,303.3 252.7,310.8 256.3,318.2 259.9,325.7 263.5,333.2 267.1,340.6 
	270.7,348.1 274.3,355.6 277.9,363 281.5,370.6 "/>
<polygon class="st4" points="238.3,401.7 229.3,401.3 220.3,400.4 211.5,398.7 202.7,396.3 194.2,393.3 185.9,389.7 189.5,382.5 
	192.9,375.2 196.4,367.9 199.9,360.7 203.4,353.5 206.9,346.2 210.4,339 213.9,331.7 217.4,324.4 220.9,317.2 224.4,309.9 
	227.8,302.7 231.4,295.5 234.9,288.2 238.3,280.9 238.3,289 238.3,297 238.3,305.1 238.3,313.1 238.3,321.2 238.3,329.2 
	238.3,337.3 238.3,345.3 238.3,353.4 238.3,361.4 238.3,369.5 238.3,377.5 238.3,385.6 238.3,393.6 "/>
<polygon class="st4" points="183.9,394 176.7,390.3 169.8,386.2 163.2,381.5 156.9,376.5 151,371.2 145.4,365.3 140.2,359.2 
	146.3,354.3 152.4,349.5 158.6,344.6 164.7,339.7 170.9,334.8 177,329.9 183.1,325 189.2,320.1 195.4,315.2 201.5,310.3 
	207.7,305.4 213.8,300.5 219.9,295.6 226.1,290.7 232.2,285.8 238.3,280.9 234.9,288 231.5,295.1 228.1,302.1 224.7,309.2 
	221.3,316.3 217.9,323.4 214.5,330.4 211.1,337.5 207.7,344.6 204.3,351.6 200.9,358.7 197.5,365.8 194.1,372.8 190.7,379.9 
	187.3,387 "/>
<polygon class="st4" points="152,349.8 147.1,343.1 142.7,336.1 138.9,328.8 135.6,321.3 132.8,313.5 130.7,305.5 138.4,303.7 
	146.1,302 153.8,300.2 161.5,298.5 169.2,296.7 176.8,295 184.5,293.2 192.2,291.4 199.9,289.7 207.6,288 215.3,286.2 223,284.4 
	230.7,282.7 238.3,280.9 232.2,285.8 226,290.8 219.9,295.7 213.7,300.6 207.5,305.5 201.4,310.4 195.2,315.4 189,320.3 
	182.9,325.2 176.7,330.1 170.5,335 164.4,339.9 158.2,344.8 "/>
<polygon class="st4" points="113.1,309.5 111.5,301.4 110.4,293.3 109.9,285.1 109.9,276.8 110.4,268.6 111.5,260.4 113.1,252.3 
	120.9,254.1 128.7,255.9 136.5,257.7 144.4,259.5 152.2,261.2 160,263 167.9,264.8 175.7,266.6 183.5,268.4 191.4,270.2 199.2,272 
	207,273.8 214.9,275.6 222.7,277.3 230.5,279.1 238.3,280.9 230.5,282.7 222.7,284.5 214.9,286.3 207,288.1 199.2,289.9 
	191.4,291.6 183.5,293.4 175.7,295.2 167.9,297 160,298.8 152.2,300.6 144.4,302.4 136.5,304.2 128.7,305.9 120.9,307.7 "/>
<polygon class="st4" points="133.2,256.9 135.3,249.1 138,241.5 141.2,234.1 144.9,227 149.2,220.1 154,213.7 160.5,218.8 167,224 
	173.5,229.2 179.9,234.4 186.5,239.6 192.9,244.7 199.4,249.9 205.9,255.1 212.4,260.2 218.9,265.4 225.3,270.6 231.9,275.8 
	238.3,280.9 230.2,279.1 222.1,277.2 214.1,275.4 206,273.5 197.9,271.7 189.8,269.8 181.7,268 173.6,266.1 165.5,264.3 
	157.4,262.4 149.4,260.6 141.3,258.7 "/>
<polygon class="st4" points="137.2,200.2 142.5,193.9 148.3,188 154.5,182.4 161,177.2 167.8,172.5 174.8,168.2 182.2,164.3 
	185.7,171.6 189.2,178.9 192.7,186.2 196.3,193.5 199.7,200.8 203.3,208.1 206.7,215.4 210.3,222.6 213.8,229.9 217.3,237.2 
	220.8,244.5 224.3,251.8 227.8,259.1 231.3,266.4 234.8,273.6 238.3,280.9 232,275.9 225.7,270.8 219.4,265.8 213.1,260.8 
	206.7,255.7 200.4,250.7 194.1,245.6 187.8,240.6 181.5,235.5 175.1,230.5 168.8,225.5 162.5,220.4 156.1,215.4 149.8,210.4 
	143.5,205.3 "/>
<polygon class="st4" points="186,172.3 194.3,168.7 202.8,165.7 211.5,163.4 220.3,161.7 229.3,160.7 238.3,160.3 238.3,168.4 
	238.3,176.4 238.3,184.5 238.3,192.5 238.3,200.6 238.3,208.6 238.3,216.6 238.3,224.7 238.3,232.7 238.3,240.7 238.3,248.8 
	238.3,256.8 238.3,264.8 238.3,272.9 238.3,280.9 234.9,273.7 231.4,266.5 227.9,259.2 224.4,252 220.9,244.7 217.4,237.5 
	213.9,230.3 210.4,223 207,215.7 203.5,208.5 200,201.3 196.5,194 193,186.7 189.5,179.5 "/>
<polyline class="st5" points="338.7,72.6 335.2,79.8 331.8,87 328.3,94.1 324.8,101.3 321.4,108.5 317.9,115.7 314.5,122.9 
	311,130.1 307.5,137.3 304.1,144.4 300.6,151.6 297.1,158.8 293.7,166 290.2,173.2 286.8,180.3 283.3,187.6 279.8,194.7 
	276.4,201.9 272.9,209.1 269.5,216.3 266,223.5 262.5,230.6 259.1,237.8 255.6,245 252.2,252.2 248.7,259.4 245.2,266.6 
	241.8,273.8 238.3,280.9 "/>
<polyline class="st5" points="419.1,136.8 412.9,141.7 406.6,146.7 400.4,151.7 394.2,156.6 387.9,161.6 381.7,166.6 375.5,171.6 
	369.2,176.5 363,181.5 356.8,186.5 350.5,191.4 344.3,196.4 338.1,201.4 331.8,206.4 325.6,211.3 319.4,216.3 313.2,221.3 
	306.9,226.2 300.7,231.2 294.5,236.2 288.2,241.2 282,246.1 275.8,251.1 269.5,256.1 263.3,261 257,266 250.8,271 244.6,275.9 
	238.3,280.9 "/>
<polyline class="st5" points="463.7,229.5 456,231.2 448.2,233 440.5,234.8 432.7,236.6 424.9,238.4 417.1,240.1 409.4,241.9 
	401.6,243.7 393.8,245.4 386,247.2 378.3,249 370.5,250.8 362.7,252.5 354.9,254.3 347.2,256.1 339.4,257.9 331.6,259.6 
	323.8,261.4 316.1,263.2 308.3,264.9 300.6,266.7 292.8,268.5 285,270.3 277.2,272.1 269.4,273.8 261.7,275.6 253.9,277.4 
	246.1,279.1 238.3,280.9 "/>
<polyline class="st5" points="463.7,332.4 456,330.6 448.2,328.8 440.5,327 432.7,325.3 424.9,323.5 417.1,321.7 409.4,320 
	401.6,318.2 393.8,316.4 386,314.7 378.3,312.9 370.5,311.1 362.7,309.3 354.9,307.5 347.2,305.8 339.4,304 331.6,302.2 
	323.8,300.5 316.1,298.7 308.3,296.9 300.6,295.1 292.8,293.3 285,291.6 277.2,289.8 269.4,288 261.7,286.3 253.9,284.5 
	246.1,282.7 238.3,280.9 "/>
<polyline class="st5" points="419.1,425.1 412.9,420.1 406.6,415.1 400.4,410.2 394.2,405.2 387.9,400.2 381.7,395.2 375.5,390.3 
	369.2,385.3 363,380.3 356.8,375.4 350.5,370.4 344.3,365.4 338.1,360.5 331.8,355.5 325.6,350.5 319.4,345.5 313.2,340.6 
	306.9,335.6 300.7,330.6 294.5,325.7 288.2,320.7 282,315.7 275.8,310.7 269.5,305.8 263.3,300.8 257,295.8 250.8,290.9 
	244.6,285.9 238.3,280.9 "/>
<polyline class="st5" points="338.7,489.3 335.2,482.1 331.8,474.9 328.3,467.7 324.8,460.5 321.4,453.3 317.9,446.1 314.5,439 
	311,431.8 307.5,424.6 304.1,417.4 300.6,410.2 297.1,403.1 293.7,395.9 290.2,388.7 286.8,381.5 283.3,374.3 279.8,367.1 
	276.4,359.9 272.9,352.8 269.5,345.6 266,338.4 262.5,331.2 259.1,324 255.6,316.8 252.2,309.6 248.7,302.5 245.2,295.3 
	241.8,288.1 238.3,280.9 "/>
<polyline class="st5" points="238.3,512.2 238.3,504.2 238.3,496.2 238.3,488.2 238.3,480.2 238.3,472.3 238.3,464.3 238.3,456.4 
	238.3,448.4 238.3,440.4 238.3,432.4 238.3,424.4 238.3,416.4 238.3,408.5 238.3,400.5 238.3,392.6 238.3,384.6 238.3,376.6 
	238.3,368.6 238.3,360.7 238.3,352.7 238.3,344.7 238.3,336.7 238.3,328.8 238.3,320.8 238.3,312.8 238.3,304.9 238.3,296.9 
	238.3,288.9 238.3,280.9 "/>
<polyline class="st5" points="138,489.3 141.5,482.1 144.9,474.9 148.4,467.7 151.9,460.5 155.3,453.3 158.8,446.1 162.2,439 
	165.7,431.8 169.2,424.6 172.6,417.4 176.1,410.2 179.5,403.1 183,395.9 186.5,388.7 189.9,381.5 193.4,374.3 196.9,367.1 
	200.3,359.9 203.8,352.8 207.2,345.6 210.7,338.4 214.1,331.2 217.6,324 221.1,316.8 224.5,309.6 228,302.5 231.4,295.3 
	234.9,288.1 238.3,280.9 "/>
<polyline class="st5" points="57.6,425.1 63.8,420.1 70,415.1 76.2,410.2 82.5,405.2 88.7,400.2 94.9,395.2 101.2,390.3 
	107.5,385.3 113.7,380.3 119.9,375.4 126.2,370.4 132.4,365.4 138.6,360.5 144.8,355.5 151.1,350.5 157.3,345.5 163.5,340.6 
	169.8,335.6 176,330.6 182.2,325.7 188.5,320.7 194.7,315.7 200.9,310.7 207.2,305.8 213.4,300.8 219.6,295.8 225.9,290.9 
	232.1,285.9 238.3,280.9 "/>
<polyline class="st5" points="12.9,332.4 20.7,330.6 28.4,328.8 36.2,327 44,325.3 51.8,323.5 59.5,321.7 67.3,320 75.1,318.2 
	82.9,316.4 90.6,314.7 98.4,312.9 106.2,311.1 114,309.3 121.8,307.5 129.5,305.8 137.3,304 145.1,302.2 152.9,300.5 160.6,298.7 
	168.4,296.9 176.1,295.1 183.9,293.3 191.7,291.6 199.5,289.8 207.2,288 215,286.3 222.8,284.5 230.6,282.7 238.3,280.9 "/>
<polyline class="st5" points="12.9,229.5 20.7,231.2 28.4,233 36.2,234.8 44,236.6 51.8,238.4 59.5,240.1 67.3,241.9 75.1,243.7 
	82.9,245.4 90.6,247.2 98.4,249 106.2,250.8 114,252.5 121.8,254.3 129.5,256.1 137.3,257.9 145.1,259.6 152.9,261.4 160.6,263.2 
	168.4,264.9 176.1,266.7 183.9,268.5 191.7,270.3 199.5,272.1 207.2,273.8 215,275.6 222.8,277.4 230.6,279.1 238.3,280.9 "/>
<polyline class="st5" points="57.6,136.8 63.8,141.7 70,146.7 76.2,151.7 82.5,156.6 88.7,161.6 94.9,166.6 101.2,171.6 
	107.5,176.5 113.7,181.5 119.9,186.5 126.2,191.4 132.4,196.4 138.6,201.4 144.8,206.4 151.1,211.3 157.3,216.3 163.5,221.3 
	169.8,226.2 176,231.2 182.2,236.2 188.5,241.2 194.7,246.1 200.9,251.1 207.2,256.1 213.4,261 219.6,266 225.9,271 232.1,275.9 
	238.3,280.9 "/>
<polyline class="st5" points="138,72.6 141.5,79.8 144.9,87 148.4,94.1 151.9,101.3 155.3,108.5 158.8,115.7 162.2,122.9 
	165.7,130.1 169.2,137.3 172.6,144.4 176.1,151.6 179.5,158.8 183,166 186.5,173.2 189.9,180.3 193.4,187.6 196.9,194.7 
	200.3,201.9 203.8,209.1 207.2,216.3 210.7,223.5 214.1,230.6 217.6,237.8 221.1,245 224.5,252.2 228,259.4 231.4,266.6 
	234.9,273.8 238.3,280.9 "/>
<polyline class="st5" points="238.3,49.7 238.3,57.7 238.3,65.6 238.3,73.6 238.3,81.6 238.3,89.6 238.3,97.6 238.3,105.5 
	238.3,113.5 238.3,121.4 238.3,129.4 238.3,137.4 238.3,145.4 238.3,153.4 238.3,161.4 238.3,169.3 238.3,177.3 238.3,185.2 
	238.3,193.2 238.3,201.2 238.3,209.2 238.3,217.1 238.3,225.1 238.3,233.1 238.3,241.1 238.3,249 238.3,257 238.3,265 238.3,272.9 
	238.3,280.9 "/>
<g>
	<line class="st6" x1="407.3" y1="80.5" x2="351" y2="136.8"/>
	<g>
		<line class="st7" x1="407.3" y1="80.5" x2="356.7" y2="131.1"/>
		<g>
			<g>
				<path class="st8" d="M351.7,125.5c-2.9,2.9-2.9,7.7,0,10.6c2.9,2.9,7.7,2.9,10.6,0s2.9-7.7,0-10.6
					C359.4,122.5,354.6,122.5,351.7,125.5z"/>
				<path class="st1" d="M351,124.8c3.3-3.3,8.7-3.3,12,0s3.3,8.7,0,12s-8.7,3.3-12,0S347.7,128.1,351,124.8
					C354.3,121.4,347.7,128.1,351,124.8z M361.6,135.4c2.5-2.5,2.5-6.7,0-9.2s-6.7-2.5-9.2,0s-2.5,6.7,0,9.2
					S359.1,137.9,361.6,135.4C364.2,132.8,359.1,137.9,361.6,135.4z"/>
			</g>
		</g>
	</g>
</g>
<g>
	<line class="st6" x1="460" y1="180" x2="371.6" y2="217"/>
	<g>
		<line class="st7" x1="460" y1="180" x2="379.1" y2="213.9"/>
		<g>
			<g>
				<path class="st8" d="M376.6,206.8c-3.8,1.6-5.6,6-4,9.8s6,5.6,9.8,4s5.6-6,4-9.8S380.4,205.2,376.6,206.8z"/>
				<path class="st1" d="M376.2,205.9c4.3-1.8,9.3,0.2,11.1,4.6c1.8,4.3-0.2,9.3-4.6,11.1c-4.3,1.8-9.3-0.2-11.1-4.6
					S371.8,207.7,376.2,205.9C380.5,204,371.8,207.7,376.2,205.9z M382,219.7c3.3-1.4,4.9-5.2,3.5-8.5s-5.2-4.9-8.5-3.5
					s-4.9,5.2-3.5,8.5C374.8,219.5,378.7,221.1,382,219.7C385.3,218.3,378.7,221.1,382,219.7z"/>
			</g>
		</g>
	</g>
</g>
<g>
	<line class="st6" x1="474.1" y1="278" x2="368.6" y2="278"/>
	<g>
		<line class="st7" x1="474.1" y1="278" x2="376.7" y2="278"/>
		<g>
			<g>
				<path class="st8" d="M377.1,270.5c-4.2,0-7.5,3.4-7.5,7.5s3.4,7.5,7.5,7.5c4.2,0,7.5-3.4,7.5-7.5S381.3,270.5,377.1,270.5z"/>
				<path class="st1" d="M377.1,269.5c4.7,0,8.5,3.8,8.5,8.5s-3.8,8.5-8.5,8.5s-8.5-3.8-8.5-8.5S372.4,269.5,377.1,269.5
					C381.8,269.5,372.4,269.5,377.1,269.5z M377.1,284.5c3.6,0,6.5-2.9,6.5-6.5s-2.9-6.5-6.5-6.5s-6.5,2.9-6.5,6.5
					S373.5,284.5,377.1,284.5S373.5,284.5,377.1,284.5z"/>
			</g>
		</g>
	</g>
</g>
</svg>
